<?xml version="1.0" standalone="no"?>
<!DOCTYPE svg PUBLIC "-//W3C//DTD SVG 20010904//EN"
 "http://www.w3.org/TR/2001/REC-SVG-20010904/DTD/svg10.dtd">
<svg version="1.0" xmlns="http://www.w3.org/2000/svg"
 width="640.000000pt" height="640.000000pt" viewBox="0 0 640.000000 640.000000"
 preserveAspectRatio="xMidYMid meet">
<metadata>
Created by potrace 1.11, written by Peter Selinger 2001-2013
</metadata>
<g transform="translate(0.000000,640.000000) scale(0.100000,-0.100000)"
fill="#000000" stroke="none">
<path d="M1230 6389 c-308 -40 -571 -166 -792 -378 -217 -208 -344 -436 -410
-734 l-23 -102 0 -1975 0 -1975 23 -102 c66 -298 193 -526 410 -734 193 -186
403 -297 680 -361 l97 -22 2593 -3 2592 -3 -3 2592 -3 2593 -22 97 c-64 277
-175 487 -361 680 -206 215 -431 342 -729 410 l-97 22 -1945 2 c-1070 1 -1974
-2 -2010 -7z m2245 -1611 c246 -75 425 -238 500 -455 36 -102 45 -180 45 -380
l0 -183 -254 0 -254 0 -4 183 c-3 175 -4 184 -30 233 -31 59 -84 108 -147 138
-44 20 -61 21 -421 21 l-375 0 -57 -28 c-70 -34 -131 -102 -153 -167 -14 -41
-16 -88 -13 -287 l3 -238 31 -55 c36 -64 108 -123 168 -139 26 -7 312 -12 796
-14 742 -4 756 -5 830 -26 201 -59 366 -195 454 -371 69 -142 76 -185 76 -536
0 -268 -2 -309 -20 -380 -40 -156 -132 -296 -257 -391 -82 -62 -144 -93 -243
-125 -75 -23 -78 -23 -585 -23 -507 0 -510 0 -585 23 -211 66 -369 201 -459
392 -52 108 -64 190 -65 415 l-1 200 251 3 252 2 4 -177 c5 -204 15 -240 88
-313 84 -84 88 -85 482 -88 293 -3 357 -1 409 13 95 24 151 70 195 160 23 49
24 56 24 295 0 218 -2 250 -19 286 -27 59 -84 119 -139 146 l-47 23 -775 5
c-765 6 -776 6 -848 28 -243 74 -420 244 -500 479 l-27 78 0 345 0 345 26 77
c88 256 286 434 549 493 97 21 1022 16 1095 -7z"/>
</g>
</svg>
