<svg width="15" height="15" viewBox="0 0 15 15" xmlns="http://www.w3.org/2000/svg"><title>Shape</title><path d="M14.98.25l-.012-.035c-.022-.048-.052-.093-.095-.13-.006-.005-.014-.007-.02-.01-.003-.004-.004-.008-.008-.01-.007-.006-.016-.004-.024-.01-.047-.028-.098-.045-.152-.05-.01 0-.02-.005-.03-.005-.063 0-.124.013-.18.043-.005.002-.01 0-.016.004L.187 8.18c-.128.072-.2.212-.185.356.015.145.114.267.254.313l4.324 1.42 1.442 4.26c.003.007.01.01.014.02.025.06.06.116.116.158h.004c.063.047.14.074.22.074h.025c.01 0 .017-.01.027-.01.06-.01.115-.032.165-.068.017-.013.032-.023.047-.04.01-.01.027-.016.037-.03l1.666-2.188.464-.61 3.425 1.437c.047.02.098.03.148.03l.007-.002c.06 0 .118-.013.17-.04.102-.055.172-.15.192-.262L15 .43c0-.007-.003-.014-.003-.02.006-.054 0-.108-.018-.16zm-3.29 3.537l-4.868 6.715c-.03.043-.05.09-.06.14l-.002.002-.473 2.332-.98-2.9 6.384-6.29zm-4.62 9.1l.33-1.638.695.29-1.026 1.348z" fill-rule="nonzero"/></svg>
